<svg width="30" height="30" viewBox="0 0 30 30" fill="none" xmlns="http://www.w3.org/2000/svg">
<rect width="30" height="30" rx="7" fill="white"/>
<path d="M15.42 22.2C14.3267 22.2 13.32 22.0267 12.4 21.68C11.4933 21.32 10.7 20.82 10.02 20.18C9.34 19.5267 8.81333 18.76 8.44 17.88C8.06667 17 7.88 16.04 7.88 15C7.88 13.96 8.06667 13 8.44 12.12C8.81333 11.24 9.34 10.48 10.02 9.84C10.7133 9.18667 11.52 8.68667 12.44 8.34C13.36 7.98 14.3667 7.8 15.46 7.8C16.6467 7.8 17.7133 7.99333 18.66 8.38C19.62 8.76667 20.4267 9.33333 21.08 10.08L19.44 11.68C18.8933 11.1333 18.3 10.7333 17.66 10.48C17.0333 10.2133 16.34 10.08 15.58 10.08C14.8467 10.08 14.1667 10.2 13.54 10.44C12.9133 10.68 12.3733 11.02 11.92 11.46C11.4667 11.9 11.1133 12.42 10.86 13.02C10.62 13.62 10.5 14.28 10.5 15C10.5 15.7067 10.62 16.36 10.86 16.96C11.1133 17.56 11.4667 18.0867 11.92 18.54C12.3733 18.98 12.9067 19.32 13.52 19.56C14.1333 19.8 14.8133 19.92 15.56 19.92C16.2533 19.92 16.92 19.8133 17.56 19.6C18.2133 19.3733 18.8333 19 19.42 18.48L20.9 20.42C20.1667 21.0067 19.3133 21.4533 18.34 21.76C17.38 22.0533 16.4067 22.2 15.42 22.2ZM18.44 20.08V14.84H20.9V20.42L18.44 20.08Z" fill="black"/>
</svg>
