<svg width="15" height="15" viewBox="0 0 15 15" fill="none" xmlns="http://www.w3.org/2000/svg">
<path fill-rule="evenodd" clip-rule="evenodd" d="M0 7.50008C0 11.6626 3.52499 15 7.49998 15C11.475 15 15 11.25 15 7.49998C15 3.74998 11.475 0 7.5 0C3.52502 0 8.9854e-05 3.3376 0 7.50008ZM3.46807 8.77649L5.41057 10.719C5.47996 10.7885 5.56237 10.8437 5.6531 10.8813C5.74383 10.9189 5.8411 10.9383 5.93932 10.9383C6.03755 10.9383 6.13481 10.9189 6.22554 10.8813C6.31627 10.8437 6.39869 10.7885 6.46807 10.719L11.4106 5.7765C11.48 5.70707 11.5351 5.62464 11.5727 5.53391C11.6102 5.44319 11.6296 5.34595 11.6296 5.24776C11.6296 5.14956 11.6102 5.05232 11.5727 4.9616C11.5351 4.87088 11.48 4.78845 11.4106 4.71901C11.3411 4.64957 11.2587 4.59449 11.168 4.55692C11.0773 4.51934 10.98 4.5 10.8818 4.5C10.7836 4.5 10.6864 4.51934 10.5957 4.55692C10.5049 4.59449 10.4225 4.64957 10.3531 4.71901L5.94307 9.12899L4.52557 7.71899C4.45613 7.64956 4.3737 7.59448 4.28298 7.5569C4.19226 7.51932 4.09502 7.49998 3.99682 7.49998C3.89862 7.49998 3.80139 7.51932 3.71066 7.5569C3.61994 7.59448 3.53751 7.64956 3.46807 7.71899C3.39863 7.78843 3.34355 7.87086 3.30598 7.96158C3.2684 8.05231 3.24906 8.14954 3.24906 8.24774C3.24906 8.34594 3.2684 8.44317 3.30598 8.5339C3.34355 8.62462 3.39863 8.70705 3.46807 8.77649Z" fill="#0085FF"/>
<path d="M5.41057 10.719L3.46807 8.77649C3.39863 8.70705 3.34355 8.62462 3.30598 8.5339C3.2684 8.44317 3.24906 8.34594 3.24906 8.24774C3.24906 8.14954 3.2684 8.05231 3.30598 7.96158C3.34355 7.87086 3.39863 7.78843 3.46807 7.71899C3.53751 7.64956 3.61994 7.59448 3.71066 7.5569C3.80139 7.51932 3.89862 7.49998 3.99682 7.49998C4.09502 7.49998 4.19226 7.51932 4.28298 7.5569C4.3737 7.59448 4.45613 7.64956 4.52557 7.71899L5.94307 9.12899L10.3531 4.71901C10.4225 4.64957 10.5049 4.59449 10.5957 4.55692C10.6864 4.51934 10.7836 4.5 10.8818 4.5C10.98 4.5 11.0773 4.51934 11.168 4.55692C11.2587 4.59449 11.3411 4.64957 11.4106 4.71901C11.48 4.78845 11.5351 4.87088 11.5727 4.9616C11.6102 5.05232 11.6296 5.14956 11.6296 5.24776C11.6296 5.34595 11.6102 5.44319 11.5727 5.53391C11.5351 5.62464 11.48 5.70707 11.4106 5.7765L6.46807 10.719C6.39869 10.7885 6.31627 10.8437 6.22554 10.8813C6.13481 10.9189 6.03755 10.9383 5.93932 10.9383C5.8411 10.9383 5.74383 10.9189 5.6531 10.8813C5.56237 10.8437 5.47996 10.7885 5.41057 10.719Z" fill="white"/>
</svg>
